<?xml version="1.0" standalone="no"?>
<!DOCTYPE svg PUBLIC "-//W3C//DTD SVG 20010904//EN"
 "http://www.w3.org/TR/2001/REC-SVG-20010904/DTD/svg10.dtd">
<svg version="1.0" xmlns="http://www.w3.org/2000/svg"
 width="642.000000pt" height="286.000000pt" viewBox="0 0 642.000000 286.000000"
 preserveAspectRatio="xMidYMid meet">

<g transform="translate(0.000000,286.000000) scale(0.100000,-0.100000)"
fill="#000000" stroke="none">
<path d="M4590 2500 c-137 -20 -254 -51 -319 -85 -97 -49 -157 -155 -212 -373
-49 -194 -37 -239 60 -230 27 3 75 17 106 33 31 15 58 25 60 23 3 -2 0 -20 -6
-39 -5 -19 -30 -108 -53 -199 -40 -149 -166 -586 -252 -875 -25 -84 -33 -129
-33 -190 0 -73 3 -85 34 -140 19 -33 41 -74 49 -92 22 -46 164 -187 212 -211
78 -39 154 -52 310 -52 221 0 381 33 529 107 89 45 213 137 208 155 -2 4 6 12
17 18 30 16 127 146 159 213 41 87 55 157 55 267 0 114 -25 187 -110 318 -30
45 -54 88 -54 95 0 7 15 21 33 32 103 60 222 165 277 246 76 110 100 193 100
347 0 95 -4 126 -25 189 -33 98 -77 164 -158 240 -109 101 -262 174 -437 207
-112 22 -396 20 -550 -4z m526 -536 c15 -11 42 -37 58 -58 29 -35 31 -44 31
-114 -1 -77 -1 -77 -54 -155 -30 -43 -64 -85 -76 -93 -11 -7 -81 -29 -154 -47
-115 -30 -134 -32 -139 -18 -3 8 6 61 21 117 29 109 33 163 17 195 -14 24 -53
40 -195 80 -71 20 -115 37 -115 45 0 23 144 57 285 68 28 2 105 3 172 2 106
-1 125 -4 149 -22z m-340 -725 c30 -171 47 -214 107 -263 90 -73 99 -168 23
-241 -23 -23 -59 -49 -80 -59 -43 -20 -239 -42 -282 -32 -26 7 -26 8 -19 62
11 91 51 244 93 355 31 84 80 231 109 328 10 35 26 -15 49 -150z"/>
<path d="M1325 2466 c-103 -20 -181 -44 -262 -81 -210 -96 -323 -240 -323
-410 0 -121 31 -196 179 -434 106 -170 135 -272 95 -329 -19 -28 -93 -62 -133
-62 l-31 0 0 65 c0 86 -18 100 -123 93 -175 -12 -267 -135 -267 -356 0 -88 21
-129 80 -159 119 -61 374 -50 569 23 184 69 288 183 322 351 30 148 -45 377
-205 621 -55 85 -85 148 -86 179 0 12 13 38 30 56 31 35 88 57 149 57 29 0 31
-2 31 -39 0 -57 15 -64 123 -59 148 6 195 49 223 206 39 224 -2 282 -206 288
-53 2 -126 -3 -165 -10z"/>
<path d="M2289 2471 c-47 -15 -68 -31 -98 -74 -47 -68 -210 -403 -301 -617
-45 -107 -87 -201 -93 -207 -5 -7 -25 -13 -44 -13 -86 0 -132 -53 -172 -200
-29 -103 -28 -150 4 -180 33 -31 32 -44 -10 -143 -19 -47 -37 -103 -41 -126
-6 -38 -4 -44 28 -74 56 -52 198 -94 261 -76 49 13 69 45 120 195 25 71 53
147 63 169 l19 40 82 5 c98 6 111 15 158 118 55 118 60 103 60 -184 0 -219 2
-253 18 -281 30 -55 60 -68 157 -67 102 0 154 21 185 74 19 33 20 55 23 380 2
190 -1 442 -7 560 -28 555 -35 599 -95 645 -52 39 -256 76 -317 56z m91 -493
c3 -334 -4 -421 -32 -440 -7 -4 -49 -7 -93 -6 -74 3 -80 5 -83 25 -4 29 56
208 112 330 24 54 51 115 60 136 24 60 36 45 36 -45z"/>
<path d="M3305 2466 c-16 -7 -35 -23 -42 -34 -33 -56 -177 -614 -314 -1215
-26 -113 11 -220 115 -334 89 -97 78 -94 366 -93 137 0 260 4 272 9 49 19 77
62 113 172 38 119 43 169 19 193 -18 19 -18 19 -259 20 l-190 1 3 42 c6 100
43 249 218 892 35 128 64 244 64 257 0 33 -31 50 -130 73 -122 29 -199 34
-235 17z"/>
</g>
</svg>
